<?xml version="1.0" encoding="UTF-8" standalone="no"?><!DOCTYPE svg PUBLIC "-//W3C//DTD SVG 1.1//EN" "http://www.w3.org/Graphics/SVG/1.1/DTD/svg11.dtd"><svg width="100%" height="100%" viewBox="0 0 500 500" version="1.1" xmlns="http://www.w3.org/2000/svg" xmlns:xlink="http://www.w3.org/1999/xlink" xml:space="preserve" xmlns:serif="http://www.serif.com/" style="fill-rule:evenodd;clip-rule:evenodd;stroke-linejoin:round;stroke-miterlimit:2;"><path d="M140.144,27.316c-19.565,91.634 -98.171,122.052 -140.144,154.514l0,-30.477c66.091,-10.899 139.949,-96.923 140.144,-124.037Z" style="fill:url(#_Linear1);"/><path d="M450.377,0c-46.809,74.793 -167.77,344.404 -391.579,439.793c0,0 304.038,-282.124 379.388,-439.793l12.191,0Z" style="fill:url(#_Linear2);"/><path d="M280.288,0c-17.803,84.539 -99.353,254.383 -280.288,329.557c31.703,-5.87 246.151,-200.208 256.067,-329.557l24.221,0Z" style="fill:url(#_Linear3);"/><path d="M100.8,500c99.902,-9.022 286.526,-182.185 379.532,-376.404c15.131,16.643 -127.815,332.555 -328.962,376.404l-50.57,0Z" style="fill:url(#_Linear4);"/><path d="M308.156,500c82.053,-6.748 174.529,-117.258 191.844,-188.202l0,38.562c-5.715,33.737 -94.622,139.307 -145.9,149.64l-45.944,0Z" style="fill:url(#_Linear5);"/><defs><linearGradient id="_Linear1" x1="0" y1="0" x2="1" y2="0" gradientUnits="userSpaceOnUse" gradientTransform="matrix(2155.48,0,0,986.188,3489.33,3681.29)"><stop offset="0" style="stop-color:#fff;stop-opacity:0.42"/><stop offset="1" style="stop-color:#fff;stop-opacity:0.22"/></linearGradient><linearGradient id="_Linear2" x1="0" y1="0" x2="1" y2="0" gradientUnits="userSpaceOnUse" gradientTransform="matrix(4893.8,0,0,1782.63,4611.78,3992.84)"><stop offset="0" style="stop-color:#fff;stop-opacity:0.42"/><stop offset="1" style="stop-color:#fff;stop-opacity:0.22"/></linearGradient><linearGradient id="_Linear3" x1="0" y1="0" x2="1" y2="0" gradientUnits="userSpaceOnUse" gradientTransform="matrix(3436.74,0,0,1562.98,4173.26,3847.38)"><stop offset="0" style="stop-color:#fff;stop-opacity:0.42"/><stop offset="1" style="stop-color:#fff;stop-opacity:0.22"/></linearGradient><linearGradient id="_Linear4" x1="0" y1="0" x2="1" y2="0" gradientUnits="userSpaceOnUse" gradientTransform="matrix(5823.55,0,0,2226.22,5289.33,4360.76)"><stop offset="0" style="stop-color:#fff;stop-opacity:0.42"/><stop offset="1" style="stop-color:#fff;stop-opacity:0.22"/></linearGradient><linearGradient id="_Linear5" x1="0" y1="0" x2="1" y2="0" gradientUnits="userSpaceOnUse" gradientTransform="matrix(6745.76,0,0,2413.36,5948.06,4723.43)"><stop offset="0" style="stop-color:#fff;stop-opacity:0.42"/><stop offset="1" style="stop-color:#fff;stop-opacity:0.22"/></linearGradient></defs></svg>