<svg height="382pt" viewBox="-46 0 382 382.74988" width="382pt" xmlns="http://www.w3.org/2000/svg"><path d="m291.355469 340.75c0-23.195312-65.136719-42-145.492188-42-80.351562 0-145.488281 18.804688-145.488281 42s65.136719 42 145.488281 42c80.355469 0 145.492188-18.804688 145.492188-42zm0 0" fill="#00efd1"/><path d="m145.863281 342.238281c-5.519531 0-10-4.476562-10-10v-196.277343c0-5.523438 4.480469-10 10-10 5.523438 0 10 4.476562 10 10v196.277343c0 5.523438-4.476562 10-10 10zm0 0" fill="#f4b844"/><path d="m193.746094 19.917969c19.359375 19.304687 25.21875 48.351562 14.847656 73.648437-10.367188 25.296875-34.929688 41.875-62.269531 42.035156h-.460938c-30.710937.054688-57.625-20.542968-65.597656-50.203124-7.972656-29.660157 4.988281-60.972657 31.589844-76.324219 26.601562-15.347657 60.199219-10.898438 81.890625 10.84375zm0 0" fill="#00acea"/><path d="m178.320312 63.5625c-3.960937.003906-7.546874-2.332031-9.148437-5.957031-3.335937-7.558594-10.113281-13.042969-18.199219-14.730469-5.410156-1.109375-8.894531-6.398438-7.785156-11.808594 1.113281-5.410156 6.398438-8.894531 11.808594-7.78125 14.421875 2.992188 26.511718 12.757813 32.46875 26.226563 1.367187 3.09375 1.078125 6.667969-.765625 9.5-1.84375 2.835937-4.992188 4.546875-8.375 4.550781zm0 0" fill="#f4b844"/></svg>