<?xml version="1.0" encoding="UTF-8" standalone="no"?><!DOCTYPE svg PUBLIC "-//W3C//DTD SVG 1.1//EN" "http://www.w3.org/Graphics/SVG/1.1/DTD/svg11.dtd"><svg width="100%" height="100%" viewBox="0 0 1920 1080" version="1.1" xmlns="http://www.w3.org/2000/svg" xmlns:xlink="http://www.w3.org/1999/xlink" xml:space="preserve" xmlns:serif="http://www.serif.com/" style="fill-rule:evenodd;clip-rule:evenodd;stroke-linejoin:round;stroke-miterlimit:2;"><g id="Sky"><rect x="0" y="0" width="1920" height="606.295" style="fill:url(#_Linear1);"/><path d="M0,220.457c0,0 253.364,-72.957 553.413,-23.676c300.049,49.282 406.587,0 406.587,0c0,0 429.357,-184.054 960,27.663l0,499.307l-1920,62.909l0,-566.203Z" style="fill:#fff;fill-opacity:0.3;"/><path d="M0,367.502c0,0 328.546,-109.692 582.774,-64.354c254.228,45.337 334.702,0 334.702,0c0,0 332.874,-134.958 621.852,0c288.978,134.957 380.672,91.037 380.672,91.037l0,329.566l-1920,0l0,-356.249Z" style="fill:#fff;fill-opacity:0.3;"/></g><g id="Sun"><circle cx="307.097" cy="394.185" r="370.28" style="fill:url(#_Radial2);"/><circle cx="307.097" cy="394.185" r="246.316" style="fill:url(#_Linear3);"/></g><g id="Grass"><path d="M1920,1080l-1920,0l0,-501.367c229.196,-128.984 574.3,-211.131 960,-211.131c385.7,0 730.804,82.147 960,211.131l0,501.367Z" style="fill:#579ca6;"/><path d="M361.588,439.06c0.175,0.139 349.313,275.824 474.476,336.958l0,303.982l-836.064,0l0,-96.96l0,-404.407c100.399,-56.501 223.038,-104.014 361.588,-139.573Z" style="fill:#4c9286;"/><path d="M1920,1080l-1920,0l0,-501.367c229.196,-128.984 574.3,-211.131 960,-211.131c385.7,0 730.804,82.147 960,211.131l0,501.367Z" style="fill:url(#_Linear4);"/><path d="M793.318,752.147c-155.473,-93.216 -431.269,-313.205 -431.269,-313.205l40.399,-9.912c56.378,71.857 345.893,244.493 455.664,308.521c337.757,-77.297 673.757,-173.816 794.539,-271.706l80.573,27.475c0,0 -329.694,350.326 -1733.22,439.533l0,-30.38c0,0 388.059,-60.447 793.318,-150.326Z" style="fill-opacity:0.12;"/><path d="M1733.23,493.319c68.396,25.327 131.015,53.935 186.775,85.314l0,501.367l-1920,0l0,-147.147c0.235,-0.037 1478.47,-234.885 1733.23,-439.534Z" style="fill:#5bae7d;"/><path d="M1920,684.96c0,0 -897.345,290.251 -1920,362.074l0,32.966l1920,0l0,-395.04Z" style="fill:#264b57;"/><path d="M913.199,367.906c0,0 -119.031,126.101 -400.255,187.558l-12.153,-9.171c0,0 309.25,-88.264 375.773,-177.503l36.635,-0.884Z" style="fill:url(#_Linear5);"/><path d="M553.413,585.75c0,0 506.464,-133.907 565.099,-213.568l22.157,1.413c0,0 -223.946,153.53 -587.256,212.503" style="fill:url(#_Linear6);"/><path d="M677.377,382.584l-28.917,3.313c0,0 -52.617,73.486 -229.741,97.562l22.529,17.467c0,0 192.848,-42.8 236.129,-118.342Z" style="fill:url(#_Linear7);"/><path d="M1920,742.473c0,0 -437.847,164.227 -1366.59,291.159c0,0 601.865,-62.228 1366.59,-246.972l0,-44.187Z" style="fill:#3c6d61;"/><path d="M1015.22,1033.63c0,0 574.937,-75.006 904.778,-176.172l0,25.02c0,0 -361.765,98.319 -904.778,151.152Z" style="fill:#3c6d61;"/><path d="M1437.86,1059.36c0,0 257.581,-30.906 482.142,-112.525l0,12.346c0,0 -108.218,68.329 -482.142,100.179Z" style="fill:#3c6d61;"/><path d="M1781.77,512.241c0,0 -515.342,248.029 -1155.98,345.219c0,0 464.503,-0.347 1174.71,-337.377c0,0 -13.844,-6.016 -18.739,-7.842Z" style="fill:url(#_Linear8);"/><path d="M0,946.837c0,0 648.743,-9.097 865.718,-64.357c9.186,3.937 -134.692,57.961 -865.718,80.67l0,-16.313Z" style="fill:url(#_Linear9);"/><path d="M1893.24,564.063c0,0 -413.447,199.497 -752.569,257.997c0,0 292.105,-18.742 765.177,-251.252l-12.608,-6.745Z" style="fill:url(#_Linear10);"/><path d="M0,963.15l0,-16.313" style="fill:none;"/><path d="M304.559,454.629c0,0 277.302,297.193 442.412,340.244l-28.456,5.893c0,0 -251.802,-110.87 -439.598,-338.502c0,0 10.161,-3.131 25.642,-7.635Z" style="fill:url(#_Linear11);"/><path d="M596.901,822.06c0,0 -315.31,-131.556 -382.732,-338.601l-11.493,4.068c0,0 81.825,237.269 368.98,342.743l30.564,-6.022l-5.319,-2.188Z" style="fill:url(#_Linear12);"/><path d="M418.032,859.671c0,0 -237.149,-74.129 -279.797,-347.43l-15.032,6.265c0,0 34.037,245.327 256.505,348.287l38.324,-7.122Z" style="fill:url(#_Linear13);"/><path d="M75.079,540c0,0 -14.079,225.767 139.523,356.551l-33.881,5.922c0,0 -139.894,-152.329 -119.94,-355.631l14.298,-6.842Z" style="fill:url(#_Linear14);"/><path d="M0,741.736c22.768,101.519 86.814,176.808 86.814,176.808l-13.888,2.331c-36.069,-44.541 -58.978,-87.203 -72.926,-126.401l0,-52.738Zm0,-156.875c2.329,-5.506 3.905,-8.414 3.905,-8.414l7.499,-4.14c-4.739,11.694 -8.504,23.376 -11.404,34.995l0,-22.441Z" style="fill:url(#_Linear15);"/><path d="M713.767,700.915c0,0 576.129,-109.641 772.79,-278.905l36.7,8.366c0,0 -158.448,172.996 -793.425,281.237l-16.065,-10.698Z" style="fill:url(#_Linear16);"/><path d="M1333.55,394.185c0,0 -242.76,170.36 -682.626,262.679l-16.201,-11.236c0,0 529.796,-124.263 666.934,-255.91l31.893,4.467Z" style="fill:url(#_Linear17);"/></g><defs><linearGradient id="_Linear1" x1="0" y1="0" x2="1" y2="0" gradientUnits="userSpaceOnUse" gradientTransform="matrix(-3.26285e-13,425.154,-1346.37,1.36716e-13,960,-3.13482e-12)"><stop offset="0" style="stop-color:#e0eaf4;stop-opacity:1"/><stop offset="1" style="stop-color:#b8dbc4;stop-opacity:1"/></linearGradient><radialGradient id="_Radial2" cx="0" cy="0" r="1" gradientUnits="userSpaceOnUse" gradientTransform="matrix(1.04892e-13,-370.28,370.28,-5.95456e-14,307.097,394.185)"><stop offset="0" style="stop-color:#fdf1e0;stop-opacity:1"/><stop offset="1" style="stop-color:#fbedd9;stop-opacity:0"/></radialGradient><linearGradient id="_Linear3" x1="0" y1="0" x2="1" y2="0" gradientUnits="userSpaceOnUse" gradientTransform="matrix(-5.55526e-14,345.45,-345.45,9.78579e-14,307.097,147.869)"><stop offset="0" style="stop-color:#fdf2e1;stop-opacity:1"/><stop offset="1" style="stop-color:#edcca7;stop-opacity:1"/></linearGradient><linearGradient id="_Linear4" x1="0" y1="0" x2="1" y2="0" gradientUnits="userSpaceOnUse" gradientTransform="matrix(-464.235,-861.853,861.853,-464.235,1222.95,1080)"><stop offset="0" style="stop-color:#d2e3d2;stop-opacity:0"/><stop offset="0.64" style="stop-color:#d2e3d2;stop-opacity:0.15"/><stop offset="0.83" style="stop-color:#d2e3d2;stop-opacity:0.55"/><stop offset="1" style="stop-color:#d2e3d2;stop-opacity:1"/></linearGradient><linearGradient id="_Linear5" x1="0" y1="0" x2="1" y2="0" gradientUnits="userSpaceOnUse" gradientTransform="matrix(412.408,-9.1573e-14,-5.20577e-14,187.558,500.791,461.685)"><stop offset="0" style="stop-color:#b8dbc4;stop-opacity:0.42"/><stop offset="1" style="stop-color:#b8dbc4;stop-opacity:0.22"/></linearGradient><linearGradient id="_Linear6" x1="0" y1="0" x2="1" y2="0" gradientUnits="userSpaceOnUse" gradientTransform="matrix(587.256,-1.30397e-13,-5.93736e-14,213.916,553.413,479.14)"><stop offset="0" style="stop-color:#b8dbc4;stop-opacity:0.42"/><stop offset="1" style="stop-color:#b8dbc4;stop-opacity:0.22"/></linearGradient><linearGradient id="_Linear7" x1="0" y1="0" x2="1" y2="0" gradientUnits="userSpaceOnUse" gradientTransform="matrix(258.658,-5.74336e-14,-3.28467e-14,118.343,418.719,441.755)"><stop offset="0" style="stop-color:#b8dbc4;stop-opacity:0.42"/><stop offset="1" style="stop-color:#b8dbc4;stop-opacity:0.22"/></linearGradient><linearGradient id="_Linear8" x1="0" y1="0" x2="1" y2="0" gradientUnits="userSpaceOnUse" gradientTransform="matrix(1174.71,-2.60839e-13,-9.58177e-14,345.22,625.79,684.851)"><stop offset="0" style="stop-color:#b8dbc4;stop-opacity:0.42"/><stop offset="1" style="stop-color:#b8dbc4;stop-opacity:0.22"/></linearGradient><linearGradient id="_Linear9" x1="0" y1="0" x2="1" y2="0" gradientUnits="userSpaceOnUse" gradientTransform="matrix(836.064,-1.85644e-13,-2.93347e-14,105.689,3.23113e-12,910.305)"><stop offset="0" style="stop-color:#b8dbc4;stop-opacity:0.42"/><stop offset="1" style="stop-color:#b8dbc4;stop-opacity:0.22"/></linearGradient><linearGradient id="_Linear10" x1="0" y1="0" x2="1" y2="0" gradientUnits="userSpaceOnUse" gradientTransform="matrix(765.177,-1.69903e-13,-7.16087e-14,257.998,1140.67,693.061)"><stop offset="0" style="stop-color:#b8dbc4;stop-opacity:0.42"/><stop offset="1" style="stop-color:#b8dbc4;stop-opacity:0.22"/></linearGradient><linearGradient id="_Linear11" x1="0" y1="0" x2="1" y2="0" gradientUnits="userSpaceOnUse" gradientTransform="matrix(468.054,-1.03929e-13,-9.60722e-14,346.137,278.917,627.697)"><stop offset="0" style="stop-color:#b8dbc4;stop-opacity:0.42"/><stop offset="1" style="stop-color:#b8dbc4;stop-opacity:0.22"/></linearGradient><linearGradient id="_Linear12" x1="0" y1="0" x2="1" y2="0" gradientUnits="userSpaceOnUse" gradientTransform="matrix(399.544,-8.87165e-14,-9.62593e-14,346.811,202.676,656.864)"><stop offset="0" style="stop-color:#b8dbc4;stop-opacity:0.42"/><stop offset="1" style="stop-color:#b8dbc4;stop-opacity:0.22"/></linearGradient><linearGradient id="_Linear13" x1="0" y1="0" x2="1" y2="0" gradientUnits="userSpaceOnUse" gradientTransform="matrix(294.829,-6.54652e-14,-9.84079e-14,354.552,123.203,689.517)"><stop offset="0" style="stop-color:#b8dbc4;stop-opacity:0.42"/><stop offset="1" style="stop-color:#b8dbc4;stop-opacity:0.22"/></linearGradient><linearGradient id="_Linear14" x1="0" y1="0" x2="1" y2="0" gradientUnits="userSpaceOnUse" gradientTransform="matrix(155.769,-3.45876e-14,-1.00607e-13,362.473,58.8331,721.237)"><stop offset="0" style="stop-color:#b8dbc4;stop-opacity:0.42"/><stop offset="1" style="stop-color:#b8dbc4;stop-opacity:0.22"/></linearGradient><linearGradient id="_Linear15" x1="0" y1="0" x2="1" y2="0" gradientUnits="userSpaceOnUse" gradientTransform="matrix(105.976,-2.35314e-14,-9.6747e-14,348.568,-19.1624,746.591)"><stop offset="0" style="stop-color:#b8dbc4;stop-opacity:0.42"/><stop offset="1" style="stop-color:#b8dbc4;stop-opacity:0.22"/></linearGradient><linearGradient id="_Linear16" x1="0" y1="0" x2="1" y2="0" gradientUnits="userSpaceOnUse" gradientTransform="matrix(809.491,-1.79743e-13,-8.0381e-14,289.603,713.767,566.811)"><stop offset="0" style="stop-color:#b8dbc4;stop-opacity:0.42"/><stop offset="1" style="stop-color:#b8dbc4;stop-opacity:0.22"/></linearGradient><linearGradient id="_Linear17" x1="0" y1="0" x2="1" y2="0" gradientUnits="userSpaceOnUse" gradientTransform="matrix(698.827,-1.55171e-13,-7.4148e-14,267.146,634.72,523.291)"><stop offset="0" style="stop-color:#b8dbc4;stop-opacity:0.42"/><stop offset="1" style="stop-color:#b8dbc4;stop-opacity:0.22"/></linearGradient></defs></svg>